<mxfile host="app.diagrams.net" modified="2024-07-17T22:02:33.435Z" agent="Mozilla/5.0 (Windows NT 10.0; Win64; x64) AppleWebKit/537.36 (KHTML, like Gecko) Chrome/126.0.0.0 Safari/537.36" etag="f5WjSlHRNfIUVSq8_eZ5" version="24.7.1" type="device">
  <diagram name="PÃ¡gina-1" id="LfFXwyzH2ADWWe84w3T5">
    <mxGraphModel dx="1434" dy="746" grid="1" gridSize="10" guides="1" tooltips="1" connect="1" arrows="1" fold="1" page="1" pageScale="1" pageWidth="827" pageHeight="1169" math="0" shadow="0">
      <root>
        <mxCell id="0" />
        <mxCell id="1" parent="0" />
        <mxCell id="o5kQoglrYpo8ECffiC6H-4" value="" style="edgeStyle=orthogonalEdgeStyle;rounded=0;orthogonalLoop=1;jettySize=auto;html=1;" edge="1" parent="1" source="o5kQoglrYpo8ECffiC6H-1" target="o5kQoglrYpo8ECffiC6H-2">
          <mxGeometry relative="1" as="geometry" />
        </mxCell>
        <mxCell id="o5kQoglrYpo8ECffiC6H-1" value="" style="strokeWidth=2;html=1;shape=mxgraph.flowchart.start_2;whiteSpace=wrap;" vertex="1" parent="1">
          <mxGeometry x="314" y="30" width="100" height="100" as="geometry" />
        </mxCell>
        <mxCell id="o5kQoglrYpo8ECffiC6H-25" value="" style="edgeStyle=orthogonalEdgeStyle;rounded=0;orthogonalLoop=1;jettySize=auto;html=1;" edge="1" parent="1" source="o5kQoglrYpo8ECffiC6H-2" target="o5kQoglrYpo8ECffiC6H-24">
          <mxGeometry relative="1" as="geometry" />
        </mxCell>
        <mxCell id="o5kQoglrYpo8ECffiC6H-2" value="Palabra str" style="shape=parallelogram;html=1;strokeWidth=2;perimeter=parallelogramPerimeter;whiteSpace=wrap;rounded=1;arcSize=12;size=0.23;" vertex="1" parent="1">
          <mxGeometry x="314" y="160" width="100" height="60" as="geometry" />
        </mxCell>
        <mxCell id="o5kQoglrYpo8ECffiC6H-3" value="alReves: voy a invertir la palabra" style="rounded=1;whiteSpace=wrap;html=1;absoluteArcSize=1;arcSize=14;strokeWidth=2;" vertex="1" parent="1">
          <mxGeometry x="140" y="250" width="100" height="100" as="geometry" />
        </mxCell>
        <mxCell id="o5kQoglrYpo8ECffiC6H-9" value="" style="edgeStyle=orthogonalEdgeStyle;rounded=0;orthogonalLoop=1;jettySize=auto;html=1;" edge="1" parent="1" source="o5kQoglrYpo8ECffiC6H-6" target="o5kQoglrYpo8ECffiC6H-8">
          <mxGeometry relative="1" as="geometry" />
        </mxCell>
        <mxCell id="o5kQoglrYpo8ECffiC6H-12" value="" style="edgeStyle=orthogonalEdgeStyle;rounded=0;orthogonalLoop=1;jettySize=auto;html=1;" edge="1" parent="1" source="o5kQoglrYpo8ECffiC6H-6" target="o5kQoglrYpo8ECffiC6H-11">
          <mxGeometry relative="1" as="geometry" />
        </mxCell>
        <mxCell id="o5kQoglrYpo8ECffiC6H-6" value="palabra == alReves" style="strokeWidth=2;html=1;shape=mxgraph.flowchart.decision;whiteSpace=wrap;" vertex="1" parent="1">
          <mxGeometry x="314" y="380" width="100" height="100" as="geometry" />
        </mxCell>
        <mxCell id="o5kQoglrYpo8ECffiC6H-16" style="edgeStyle=orthogonalEdgeStyle;rounded=0;orthogonalLoop=1;jettySize=auto;html=1;entryX=0;entryY=0.5;entryDx=0;entryDy=0;" edge="1" parent="1" source="o5kQoglrYpo8ECffiC6H-8" target="o5kQoglrYpo8ECffiC6H-14">
          <mxGeometry relative="1" as="geometry" />
        </mxCell>
        <mxCell id="o5kQoglrYpo8ECffiC6H-8" value="es un palindromo" style="whiteSpace=wrap;html=1;strokeWidth=2;" vertex="1" parent="1">
          <mxGeometry x="304" y="525" width="120" height="60" as="geometry" />
        </mxCell>
        <mxCell id="o5kQoglrYpo8ECffiC6H-10" value="si" style="text;html=1;align=center;verticalAlign=middle;resizable=0;points=[];autosize=1;strokeColor=none;fillColor=none;" vertex="1" parent="1">
          <mxGeometry x="330" y="480" width="30" height="30" as="geometry" />
        </mxCell>
        <mxCell id="o5kQoglrYpo8ECffiC6H-15" value="" style="edgeStyle=orthogonalEdgeStyle;rounded=0;orthogonalLoop=1;jettySize=auto;html=1;" edge="1" parent="1" source="o5kQoglrYpo8ECffiC6H-11" target="o5kQoglrYpo8ECffiC6H-14">
          <mxGeometry relative="1" as="geometry" />
        </mxCell>
        <mxCell id="o5kQoglrYpo8ECffiC6H-11" value="no es un palindromo" style="whiteSpace=wrap;html=1;strokeWidth=2;" vertex="1" parent="1">
          <mxGeometry x="484" y="400" width="120" height="60" as="geometry" />
        </mxCell>
        <mxCell id="o5kQoglrYpo8ECffiC6H-13" value="no" style="text;html=1;align=center;verticalAlign=middle;resizable=0;points=[];autosize=1;strokeColor=none;fillColor=none;" vertex="1" parent="1">
          <mxGeometry x="424" y="400" width="40" height="30" as="geometry" />
        </mxCell>
        <mxCell id="o5kQoglrYpo8ECffiC6H-14" value="fin" style="ellipse;whiteSpace=wrap;html=1;strokeWidth=2;" vertex="1" parent="1">
          <mxGeometry x="504" y="515" width="80" height="80" as="geometry" />
        </mxCell>
        <mxCell id="o5kQoglrYpo8ECffiC6H-17" value="" style="endArrow=none;dashed=1;html=1;dashPattern=1 3;strokeWidth=2;rounded=0;" edge="1" parent="1">
          <mxGeometry width="50" height="50" relative="1" as="geometry">
            <mxPoint x="200" y="360" as="sourcePoint" />
            <mxPoint x="500" y="360" as="targetPoint" />
          </mxGeometry>
        </mxCell>
        <mxCell id="o5kQoglrYpo8ECffiC6H-18" value="Juntos" style="shape=umlActor;verticalLabelPosition=bottom;verticalAlign=top;html=1;outlineConnect=0;" vertex="1" parent="1">
          <mxGeometry x="180" y="160" width="30" height="60" as="geometry" />
        </mxCell>
        <mxCell id="o5kQoglrYpo8ECffiC6H-23" value="Solos" style="shape=umlActor;verticalLabelPosition=bottom;verticalAlign=top;html=1;outlineConnect=0;" vertex="1" parent="1">
          <mxGeometry x="200" y="390" width="30" height="60" as="geometry" />
        </mxCell>
        <mxCell id="o5kQoglrYpo8ECffiC6H-27" value="" style="edgeStyle=orthogonalEdgeStyle;rounded=0;orthogonalLoop=1;jettySize=auto;html=1;" edge="1" parent="1" source="o5kQoglrYpo8ECffiC6H-24" target="o5kQoglrYpo8ECffiC6H-26">
          <mxGeometry relative="1" as="geometry" />
        </mxCell>
        <mxCell id="o5kQoglrYpo8ECffiC6H-24" value="separar las letras" style="whiteSpace=wrap;html=1;strokeWidth=2;rounded=1;arcSize=12;" vertex="1" parent="1">
          <mxGeometry x="484" y="160" width="120" height="60" as="geometry" />
        </mxCell>
        <mxCell id="o5kQoglrYpo8ECffiC6H-29" value="" style="edgeStyle=orthogonalEdgeStyle;rounded=0;orthogonalLoop=1;jettySize=auto;html=1;" edge="1" parent="1" source="o5kQoglrYpo8ECffiC6H-26" target="o5kQoglrYpo8ECffiC6H-28">
          <mxGeometry relative="1" as="geometry" />
        </mxCell>
        <mxCell id="o5kQoglrYpo8ECffiC6H-26" value="dar la vuelta" style="whiteSpace=wrap;html=1;strokeWidth=2;rounded=1;arcSize=12;" vertex="1" parent="1">
          <mxGeometry x="484" y="260" width="120" height="60" as="geometry" />
        </mxCell>
        <mxCell id="o5kQoglrYpo8ECffiC6H-28" value="unir la palabra" style="whiteSpace=wrap;html=1;strokeWidth=2;rounded=1;arcSize=12;" vertex="1" parent="1">
          <mxGeometry x="304" y="260" width="120" height="60" as="geometry" />
        </mxCell>
      </root>
    </mxGraphModel>
  </diagram>
</mxfile>
